<svg width="960" height="520" viewBox="0 0 960 520" fill="none" xmlns="http://www.w3.org/2000/svg" role="img" aria-label="Iris icon overflow preview sheet">
  <defs>
    <linearGradient id="pageBg" x1="90" y1="30" x2="870" y2="500" gradientUnits="userSpaceOnUse">
      <stop stop-color="#FBFCFF"/>
      <stop offset="1" stop-color="#F4F7F5"/>
    </linearGradient>
    <filter id="panelShadow" x="0" y="0" width="960" height="520" color-interpolation-filters="sRGB">
      <feDropShadow dx="0" dy="12" stdDeviation="18" flood-color="#132033" flood-opacity="0.08"/>
    </filter>
    <linearGradient id="tileFillB" x1="3" y1="2" x2="29" y2="31" gradientUnits="userSpaceOnUse">
      <stop stop-color="#F8F5FF"/>
      <stop offset="0.55" stop-color="#F1F4FF"/>
      <stop offset="1" stop-color="#ECFAF3"/>
    </linearGradient>
    <linearGradient id="upperPetalB" x1="16" y1="-7" x2="16" y2="14" gradientUnits="userSpaceOnUse">
      <stop stop-color="#A69BFF"/>
      <stop offset="0.52" stop-color="#6E5CE8"/>
      <stop offset="1" stop-color="#4638B7"/>
    </linearGradient>
    <linearGradient id="leftPetalB" x1="-3.5" y1="3" x2="17" y2="17" gradientUnits="userSpaceOnUse">
      <stop stop-color="#4936C2"/>
      <stop offset="1" stop-color="#8E83FF"/>
    </linearGradient>
    <linearGradient id="rightPetalB" x1="35.5" y1="3" x2="15" y2="17" gradientUnits="userSpaceOnUse">
      <stop stop-color="#7E70FF"/>
      <stop offset="1" stop-color="#4E3ED2"/>
    </linearGradient>
    <linearGradient id="fallPetalB" x1="16" y1="10" x2="16" y2="28" gradientUnits="userSpaceOnUse">
      <stop stop-color="#B6AFFF"/>
      <stop offset="1" stop-color="#6657E6"/>
    </linearGradient>
    <linearGradient id="greenStemB" x1="13" y1="17" x2="19" y2="39" gradientUnits="userSpaceOnUse">
      <stop stop-color="#48C998"/>
      <stop offset="1" stop-color="#147D63"/>
    </linearGradient>
    <filter id="markShadowB" x="-10" y="-12" width="52" height="56" color-interpolation-filters="sRGB">
      <feDropShadow dx="0" dy="1.2" stdDeviation="1.6" flood-color="#2A245A" flood-opacity="0.16"/>
    </filter>
    <linearGradient id="currentBgB" x1="5" y1="4" x2="27" y2="28" gradientUnits="userSpaceOnUse">
      <stop stop-color="#F4F0FF"/>
      <stop offset="1" stop-color="#EFFBF6"/>
    </linearGradient>
  </defs>

  <rect width="960" height="520" fill="url(#pageBg)"/>
  <g filter="url(#panelShadow)">
    <rect x="64" y="54" width="832" height="412" rx="18" fill="#FFFFFF"/>
    <rect x="64.5" y="54.5" width="831" height="411" rx="17.5" stroke="#E3E7EE"/>
  </g>

  <text x="106" y="116" fill="#182337" font-family="Inter, Segoe UI, Arial, sans-serif" font-size="26" font-weight="700">Selena iris icon preview</text>
  <text x="106" y="146" fill="#677385" font-family="Inter, Segoe UI, Arial, sans-serif" font-size="15">The flower extends past the rounded square while the SVG canvas keeps everything visible.</text>

  <g transform="translate(118 202)">
    <text x="0" y="-24" fill="#536070" font-family="Inter, Segoe UI, Arial, sans-serif" font-size="15" font-weight="650">Current</text>
    <rect x="-20" y="-20" width="190" height="190" rx="14" fill="#F8FAFC" stroke="#E4E8F0"/>
    <g transform="translate(23 23) scale(3.25)">
      <rect x="1" y="1" width="30" height="30" rx="10" fill="url(#currentBgB)"/>
      <rect x="1" y="1" width="30" height="30" rx="10" stroke="#D7D8FF" stroke-width="1.5"/>
      <ellipse cx="16" cy="9" rx="3" ry="5.1" fill="#5B4DE8"/>
      <ellipse cx="11.2" cy="12.9" rx="3.2" ry="5.8" transform="rotate(-34 11.2 12.9)" fill="#4A41C8"/>
      <ellipse cx="20.8" cy="12.9" rx="3.2" ry="5.8" transform="rotate(34 20.8 12.9)" fill="#6F66F3"/>
      <ellipse cx="12.4" cy="17.7" rx="2.5" ry="4" transform="rotate(16 12.4 17.7)" fill="#8F86FF"/>
      <ellipse cx="19.6" cy="17.7" rx="2.5" ry="4" transform="rotate(-16 19.6 17.7)" fill="#9A92FF"/>
      <circle cx="16" cy="15.4" r="1.5" fill="#FFD15C"/>
      <path d="M15.2 17.3C16 19.1 16.4 21.4 16.4 24.6" stroke="#1F9D78" stroke-width="2.1" stroke-linecap="round"/>
      <path d="M16.8 17.3C16 19.1 15.6 21.4 15.6 24.6" stroke="#4CC08D" stroke-width="2.1" stroke-linecap="round"/>
      <path d="M15.7 21C13.3 20.2 11.6 20.5 9.9 22.4" stroke="#67C89B" stroke-width="1.8" stroke-linecap="round"/>
      <path d="M16.3 21C18.7 20.2 20.4 20.5 22.1 22.4" stroke="#67C89B" stroke-width="1.8" stroke-linecap="round"/>
    </g>
    <text x="20" y="176" fill="#7A8492" font-family="Inter, Segoe UI, Arial, sans-serif" font-size="13">contained inside frame</text>
  </g>

  <g transform="translate(366 202)">
    <text x="0" y="-24" fill="#536070" font-family="Inter, Segoe UI, Arial, sans-serif" font-size="15" font-weight="650">Overflow iris</text>
    <rect x="-20" y="-20" width="190" height="190" rx="14" fill="#F8FAFC" stroke="#E4E8F0"/>
    <g transform="translate(39 17) scale(2.45)">
      <rect x="1" y="1" width="30" height="30" rx="8" fill="url(#tileFillB)"/>
      <rect x="1" y="1" width="30" height="30" rx="8" stroke="#D2D6FF" stroke-width="1.35"/>
      <g filter="url(#markShadowB)" stroke-linejoin="round">
        <path d="M16 -7.1C11.6 -4.1 9.8 3 15.6 11.5C21.9 3.2 20.5 -4.1 16 -7.1Z" fill="url(#upperPetalB)" stroke="#5746D3" stroke-width="0.65"/>
        <path d="M-3.4 7.7C2.1 1.5 9.5 2.2 14.9 11.3C5.3 16.2 -1.2 14.5 -3.4 7.7Z" fill="url(#leftPetalB)" stroke="#4F3CCC" stroke-width="0.65"/>
        <path d="M35.4 7.7C29.9 1.5 22.5 2.2 17.1 11.3C26.7 16.2 33.2 14.5 35.4 7.7Z" fill="url(#rightPetalB)" stroke="#5E50DD" stroke-width="0.65"/>
        <path d="M8.5 9.5C5.8 15.3 7.4 21.2 14.8 23.9C16.2 16.4 13.5 11.3 8.5 9.5Z" fill="#958AFF" stroke="#6759DC" stroke-width="0.55"/>
        <path d="M23.5 9.5C26.2 15.3 24.6 21.2 17.2 23.9C15.8 16.4 18.5 11.3 23.5 9.5Z" fill="#A69DFF" stroke="#776AE9" stroke-width="0.55"/>
        <path d="M16 10.4C12.9 14.2 12.6 20.5 16 26.1C19.4 20.5 19.1 14.2 16 10.4Z" fill="url(#fallPetalB)" stroke="#5746D3" stroke-width="0.6"/>
        <path d="M13.6 12.5C14.4 13.4 15.2 13.9 16 13.9C16.8 13.9 17.6 13.4 18.4 12.5" stroke="#FFF5AE" stroke-width="1.15" stroke-linecap="round"/>
        <path d="M16 15.2C17.1 19.9 16.8 26 14.9 37.4" stroke="url(#greenStemB)" stroke-width="2.2" stroke-linecap="round"/>
        <path d="M16.8 21.8C20.6 18.6 24.3 18.2 28.4 21.4" stroke="#55C895" stroke-width="1.75" stroke-linecap="round"/>
        <path d="M15.5 24.1C11.1 21.2 7.5 21.6 4.4 25.6" stroke="#4FBF8C" stroke-width="1.75" stroke-linecap="round"/>
      </g>
      <circle cx="16" cy="12.4" r="1.75" fill="#FFD56A" stroke="#F2AA3C" stroke-width="0.45"/>
    </g>
    <text x="22" y="176" fill="#7A8492" font-family="Inter, Segoe UI, Arial, sans-serif" font-size="13">petals cross the border</text>
  </g>

  <g transform="translate(638 182)">
    <rect x="0" y="0" width="214" height="214" rx="16" fill="#FFFFFF" stroke="#E4E8F0"/>
    <rect x="22" y="22" width="170" height="170" rx="14" fill="#F8FAFC"/>
    <g transform="translate(55 49)">
      <rect x="0" y="0" width="104" height="56" rx="14" fill="#FFFFFF" stroke="#E6EAF2"/>
      <g transform="translate(14 12) scale(0.9)">
        <rect x="1" y="1" width="30" height="30" rx="8" fill="url(#tileFillB)"/>
        <rect x="1" y="1" width="30" height="30" rx="8" stroke="#D2D6FF" stroke-width="1.35"/>
        <g filter="url(#markShadowB)" stroke-linejoin="round">
          <path d="M16 -7.1C11.6 -4.1 9.8 3 15.6 11.5C21.9 3.2 20.5 -4.1 16 -7.1Z" fill="url(#upperPetalB)" stroke="#5746D3" stroke-width="0.65"/>
          <path d="M-3.4 7.7C2.1 1.5 9.5 2.2 14.9 11.3C5.3 16.2 -1.2 14.5 -3.4 7.7Z" fill="url(#leftPetalB)" stroke="#4F3CCC" stroke-width="0.65"/>
          <path d="M35.4 7.7C29.9 1.5 22.5 2.2 17.1 11.3C26.7 16.2 33.2 14.5 35.4 7.7Z" fill="url(#rightPetalB)" stroke="#5E50DD" stroke-width="0.65"/>
          <path d="M8.5 9.5C5.8 15.3 7.4 21.2 14.8 23.9C16.2 16.4 13.5 11.3 8.5 9.5Z" fill="#958AFF" stroke="#6759DC" stroke-width="0.55"/>
          <path d="M23.5 9.5C26.2 15.3 24.6 21.2 17.2 23.9C15.8 16.4 18.5 11.3 23.5 9.5Z" fill="#A69DFF" stroke="#776AE9" stroke-width="0.55"/>
          <path d="M16 10.4C12.9 14.2 12.6 20.5 16 26.1C19.4 20.5 19.1 14.2 16 10.4Z" fill="url(#fallPetalB)" stroke="#5746D3" stroke-width="0.6"/>
          <path d="M13.6 12.5C14.4 13.4 15.2 13.9 16 13.9C16.8 13.9 17.6 13.4 18.4 12.5" stroke="#FFF5AE" stroke-width="1.15" stroke-linecap="round"/>
          <path d="M16 15.2C17.1 19.9 16.8 26 14.9 37.4" stroke="url(#greenStemB)" stroke-width="2.2" stroke-linecap="round"/>
        </g>
        <circle cx="16" cy="12.4" r="1.75" fill="#FFD56A" stroke="#F2AA3C" stroke-width="0.45"/>
      </g>
      <text x="54" y="34" fill="#1F2937" font-family="Inter, Segoe UI, Arial, sans-serif" font-size="18" font-weight="700">Selena</text>
    </g>
    <g transform="translate(56 130)">
      <rect x="0" y="0" width="32" height="32" rx="8" fill="#F1F5F9" stroke="#DDE4EE"/>
      <g transform="translate(3 1) scale(0.67)">
        <rect x="1" y="1" width="30" height="30" rx="8" fill="url(#tileFillB)"/>
        <rect x="1" y="1" width="30" height="30" rx="8" stroke="#D2D6FF" stroke-width="1.35"/>
        <g filter="url(#markShadowB)" stroke-linejoin="round">
          <path d="M16 -7.1C11.6 -4.1 9.8 3 15.6 11.5C21.9 3.2 20.5 -4.1 16 -7.1Z" fill="url(#upperPetalB)" stroke="#5746D3" stroke-width="0.65"/>
          <path d="M-3.4 7.7C2.1 1.5 9.5 2.2 14.9 11.3C5.3 16.2 -1.2 14.5 -3.4 7.7Z" fill="url(#leftPetalB)" stroke="#4F3CCC" stroke-width="0.65"/>
          <path d="M35.4 7.7C29.9 1.5 22.5 2.2 17.1 11.3C26.7 16.2 33.2 14.5 35.4 7.7Z" fill="url(#rightPetalB)" stroke="#5E50DD" stroke-width="0.65"/>
          <path d="M16 10.4C12.9 14.2 12.6 20.5 16 26.1C19.4 20.5 19.1 14.2 16 10.4Z" fill="url(#fallPetalB)" stroke="#5746D3" stroke-width="0.6"/>
          <path d="M16 15.2C17.1 19.9 16.8 26 14.9 37.4" stroke="url(#greenStemB)" stroke-width="2.2" stroke-linecap="round"/>
        </g>
        <circle cx="16" cy="12.4" r="1.75" fill="#FFD56A" stroke="#F2AA3C" stroke-width="0.45"/>
      </g>
      <text x="44" y="21" fill="#5C6675" font-family="Inter, Segoe UI, Arial, sans-serif" font-size="13">32px check</text>
    </g>
  </g>
</svg>
